<?xml version="1.0" encoding="UTF-8" standalone="no"?>
<svg
   xmlns:dc="http://purl.org/dc/elements/1.1/"
   xmlns:cc="http://creativecommons.org/ns#"
   xmlns:rdf="http://www.w3.org/1999/02/22-rdf-syntax-ns#"
   xmlns:svg="http://www.w3.org/2000/svg"
   xmlns="http://www.w3.org/2000/svg"
   xmlns:sodipodi="http://sodipodi.sourceforge.net/DTD/sodipodi-0.dtd"
   xmlns:inkscape="http://www.inkscape.org/namespaces/inkscape"
   version="1.1"
   id="Layer_1"
   x="0px"
   y="0px"
   viewBox="5 11 635 200"
   xml:space="preserve"
   sodipodi:docname="tree_canopy_close.svg"
   inkscape:version="1.0 (4035a4fb49, 2020-05-01)"
   width="635"
   height="200"><metadata
   id="metadata1343"><rdf:RDF><cc:Work
       rdf:about=""><dc:format>image/svg+xml</dc:format><dc:type
         rdf:resource="http://purl.org/dc/dcmitype/StillImage" /><dc:title></dc:title></cc:Work></rdf:RDF></metadata><defs
   id="defs1341">
	
	
</defs><sodipodi:namedview
   viewbox-y="11"
   viewbox-x="10"
   inkscape:showpageshadow="false"
   borderlayer="false"
   showborder="true"
   fit-margin-bottom="100"
   fit-margin-top="100"
   fit-margin-right="100"
   fit-margin-left="100"
   inkscape:document-rotation="0"
   pagecolor="#ffffff"
   bordercolor="#666666"
   borderopacity="1"
   objecttolerance="10"
   gridtolerance="10"
   guidetolerance="10"
   inkscape:pageopacity="0"
   inkscape:pageshadow="2"
   inkscape:window-width="1920"
   inkscape:window-height="1017"
   id="namedview1339"
   showgrid="true"
   inkscape:zoom="0.30076923"
   inkscape:cx="429.40255"
   inkscape:cy="-17.615447"
   inkscape:window-x="-8"
   inkscape:window-y="-8"
   inkscape:window-maximized="1"
   inkscape:current-layer="Layer_1"><inkscape:grid
     originy="-85.559823"
     originx="-101.72102"
     type="xygrid"
     id="grid1988" /></sodipodi:namedview>







<g
   transform="translate(694.46233,120.95983)"
   id="g1308">
</g>
<g
   transform="translate(694.46233,120.95983)"
   id="g1310">
</g>
<g
   transform="translate(694.46233,120.95983)"
   id="g1312">
</g>
<g
   transform="translate(694.46233,120.95983)"
   id="g1314">
</g>
<g
   transform="translate(694.46233,120.95983)"
   id="g1316">
</g>
<g
   transform="translate(694.46233,120.95983)"
   id="g1318">
</g>
<g
   transform="translate(694.46233,120.95983)"
   id="g1320">
</g>
<g
   transform="translate(694.46233,120.95983)"
   id="g1322">
</g>
<g
   transform="translate(694.46233,120.95983)"
   id="g1324">
</g>
<g
   transform="translate(694.46233,120.95983)"
   id="g1326">
</g>
<g
   transform="translate(694.46233,120.95983)"
   id="g1328">
</g>
<g
   transform="translate(694.46233,120.95983)"
   id="g1330">
</g>
<g
   transform="translate(694.46233,120.95983)"
   id="g1332">
</g>
<g
   transform="translate(694.46233,120.95983)"
   id="g1334">
</g>
<g
   transform="translate(694.46233,120.95983)"
   id="g1336">
</g>
<path
   style="fill:#00a700;fill-opacity:1;stroke-width:3.72699"
   d="m 1681.6766,-270.61828 c 0,-125.1216 -81.6607,-232.47094 -198.0284,-278.30102 20.5485,-37.01589 32.2281,-79.00012 32.2281,-123.54943 0,-148.75796 -129.4217,-269.35381 -289.0753,-269.35381 -45.4868,0 -88.4987,9.8179 -126.7847,27.25921 -34.0195,-113.48337 -145.71907,-196.76457 -278.36865,-196.76457 -132.64953,0 -244.34914,83.2812 -278.36867,196.76808 -38.28213,-17.44121 -81.29785,-27.25913 -126.78463,-27.25913 -159.64976,0 -289.07534,120.59226 -289.07534,269.3538 0,44.54932 11.67962,86.53353 32.22802,123.54945 -116.36758,45.83004 -198.02839,153.17943 -198.02839,278.30101 0,162.15549 137.20174,294.281707 309.31486,301.516497 23.99631,80.986023 116.66102,141.357653 227.39923,141.357653 62.7649,0 119.69578,-19.42355 161.65746,-50.96388 41.9578,31.54033 98.89255,50.96388 161.65746,50.96388 62.7649,0 119.69578,-19.42355 161.65748,-50.96388 41.95777,31.54033 98.89257,50.96388 161.65747,50.96388 110.742,0 203.4067,-60.37525 227.3992,-141.357653 172.1131,-7.23841 309.3148,-139.364577 309.3148,-301.520087 z"
   id="path1290" /><path
   id="path1292"
   d="m 804.31162,-1110.7955 c -3.55988,0.1978 -7.1043,0.4389 -10.62557,0.7591 -1.07722,0.097 -2.15056,0.2087 -3.2278,0.3166 -3.78382,0.3814 -7.54831,0.8203 -11.28964,1.3383 -0.69885,0.097 -1.40157,0.1907 -2.10041,0.2914 -4.45177,0.6476 -8.87265,1.3671 -13.25491,2.1982 -0.009,0 -0.0153,0 -0.0231,0 75.88469,14.3797 146.93537,63.6275 191.94724,125.70435 31.8767,43.95934 86.34037,69.29737 143.14387,65.69972 0.3783,-0.0246 0.7567,-0.0464 1.1351,-0.072 -34.0157,-113.49057 -145.71527,-196.77187 -278.3648,-196.77187 -4.64867,0 -9.26647,0.1255 -13.86497,0.331 -1.16216,0.051 -2.31661,0.1367 -3.47492,0.2016 z"
   style="fill:#097c09;stroke-width:3.72699" /><path
   id="path1294"
   d="m 1483.6444,-548.9193 c 20.5523,-37.01589 32.228,-79.00012 32.228,-123.54943 0,-148.75796 -129.4217,-269.35381 -289.0753,-269.35381 -19.811,0 -39.1547,1.8671 -57.8421,5.41078 131.9121,24.98189 231.1946,133.65521 231.1946,263.94303 0,44.54931 -11.6796,86.53354 -32.228,123.54943 116.3676,45.83008 198.0284,153.17942 198.0284,278.30102 0,162.15551 -137.2017,294.281677 -309.311,301.512907 -19.6681,66.37606 -85.4793,118.879723 -169.5494,135.673403 18.5059,3.70195 37.8883,5.68786 57.8691,5.68786 110.7382,0 203.4068,-60.37527 227.3993,-141.357653 172.1131,-7.23122 309.3109,-139.357437 309.3109,-301.512927 0.01,-125.12519 -81.6492,-232.47097 -198.0245,-278.30461 z"
   style="fill:#008200;fill-opacity:1;stroke-width:3.72699" /><path
   style="fill:#009000;stroke-width:3.72699"
   d="m 614.66168,76.677917 c -26.06964,41.199933 -134.11284,87.271053 -174.17877,89.890113 4.4093,0.88142 8.87651,1.65131 13.37847,2.33487 0.36295,0.0539 0.722,0.11503 1.08495,0.16911 4.56759,0.67634 9.17766,1.25556 13.83407,1.71965 0.11977,0.0122 0.23941,0.0194 0.35908,0.0326 4.18921,0.41372 8.42476,0.70872 12.6835,0.94616 1.03859,0.0575 2.07336,0.11164 3.11583,0.15836 4.43633,0.19776 8.89581,0.33097 13.39778,0.33097 v 0 c 57.24362,0 109.59533,-16.19286 150.20179,-42.96276 l 7.11972,-4.82442 -36.25891,-55.432093 z"
   id="path1298" /><path
   style="fill:#bf6101;stroke-width:3.72699"
   d="M 966.19303,145.45722 1090.0433,-36.639886 c 9.7954,-14.4049 6.834,-33.31399 -6.9769,-44.50617 v 0 c -14.7453,-11.95129 -36.9192,-11.1706 -50.6529,1.78444 L 941.20444,6.679047 c -12.09661,11.41162 -32.82262,1.92114 -30.51758,-13.973173 L 937.50943,-192.4564 c 2.86488,-19.7833 -12.8302,-37.69946 -34.20486,-39.04497 l -25.12758,-1.58295 c -18.8843,-1.18718 -35.69137,11.08068 -38.96939,28.44638 L 791.33469,48.810767 c -2.66409,14.09549 -21.8727,18.74719 -31.56391,7.64135 L 609.83153,-115.36661 c -10.37457,-11.89015 -27.92296,-15.98064 -43.08135,-10.04098 l -26.25113,10.28202 c -20.78394,8.14142 -29.00792,31.551124 -17.40939,49.564394 L 677.17177,173.7453 c 22.3129,34.65587 31.51374,75.31258 25.93456,115.39003 -19.96925,143.50184 -44.77253,278.8407 -146.28286,389.08617 h 529.67543 v 0 C 977.83403,560.20156 951.03073,413.43308 936.64842,258.6743 c -3.70273,-39.73931 6.62939,-79.52538 29.54461,-113.21708 z"
   id="path1300" /><path
   style="fill:#9a4d01;stroke-width:3.72699"
   d="m 1090.0355,-36.639886 c 9.7955,-14.4049 6.8341,-33.31399 -6.9769,-44.50617 v 0 c -14.7452,-11.95129 -36.9191,-11.1706 -50.6528,1.78444 l -40.73377,38.42255 v 0 l -50.4753,47.618113 c -12.09662,11.41162 -32.81877,1.92114 -30.51759,-13.973173 L 937.50171,-192.4564 c 2.79537,-19.28324 -12.06571,-36.74606 -32.61412,-38.86508 L 829.4701,205.45831 c -1.26642,5.64108 -2.2587,11.33608 -2.94598,17.0707 v 0 0 c -1.4363,11.93691 -1.62935,24.04288 -0.50579,36.14168 14.38234,154.76239 41.18561,301.53087 149.8505,419.54711 v 0 h 110.61457 v 0 C 977.81863,560.19795 951.01533,413.42948 936.63297,258.67069 c -3.69113,-39.7393 6.63712,-79.52537 29.55236,-113.21709 z"
   id="path1302" /><path
   style="fill:#00b400;fill-opacity:1;stroke-width:3.72699"
   d="m 766.63572,-899.86711 c -81.10095,0 -150.91611,44.85155 -182.56499,109.36408 -32.69517,-21.52817 -72.5719,-34.21696 -115.64941,-34.21696 -110.83474,0 -200.68476,83.72019 -200.68476,186.99345 0,34.07666 9.8302,65.99114 26.91912,93.50572 -96.24004,13.7861 -169.93938,91.27521 -169.93938,184.80972 0,103.27325 89.85004,186.99343 200.68478,186.99343 110.83469,0 641.91935,-437.18267 641.91935,-540.45593 0,-103.27326 -89.85387,-186.99351 -200.68471,-186.99351 z"
   id="path1304" /><path
   style="fill:#121419;stroke-width:3.72699"
   d="m 1520.8531,-561.53256 c 15.3824,-35.17751 23.1585,-72.37688 23.1585,-110.93259 0,-7.81763 -0.3321,-15.71801 -0.9884,-23.47088 -1.2201,-14.43363 -14.7762,-25.20129 -30.2551,-24.07526 -15.4865,1.13686 -27.058,13.7573 -25.838,28.19096 0.5367,6.39297 0.8147,12.90466 0.8147,19.35518 0,39.22846 -9.7838,76.74441 -29.0813,111.50462 -3.6062,6.4865 -4.1351,14.08109 -1.471,20.95254 2.6641,6.87145 8.2858,12.39379 15.5059,15.23593 109.8617,43.26853 180.8506,143.03052 180.8506,254.15378 0,147.73266 -124.0665,268.670214 -282.4498,275.325834 -12.1738,0.51086 -22.6101,8.267323 -25.8496,19.211273 -20.9653,70.76159 -105.1976,122.121183 -200.2793,122.121183 -45.3054,0 -88.518,-11.23536 -124.1128,-31.97923 l 92.9504,-136.673576 c 6.5136,-9.57687 9.8572,-20.19342 10.2047,-30.77045 0.5753,-17.62833 -7.1776,-35.14152 -22.4751,-47.542514 -25.8804,-20.98132 -65.0313,-19.59626 -89.1357,3.140714 l -69.74947,65.79684 22.7415,-156.964124 c 2.4015,-16.59582 -2.7375,-33.55137 -14.1005,-46.52082 -9.94218,-11.35048 -24.04652,-18.95583 -39.42886,-21.43818 -2.19692,-0.35257 -4.42087,-0.6044 -6.66027,-0.74471 l -25.12758,-1.58294 c -12.50203,-0.7915 -24.45963,1.74483 -34.82263,6.83545 -17.27425,8.4832 -30.13535,24.07526 -33.75313,43.2218 L 789.50071,-92.708816 767.50058,23.760547 631.66179,-131.89769 c -4.50581,-5.16257 -9.81858,-9.49052 -15.66032,-12.91906 -0.0347,-0.0222 -0.0695,-0.0469 -0.10419,-0.0683 -0.62937,-0.36697 -1.2896,-0.68354 -1.93052,-1.03252 -8.35913,-4.52218 -17.67964,-7.31034 -27.26659,-8.10184 -0.30502,-0.0248 -0.61776,-0.0219 -0.9228,-0.0433 -1.41313,-0.0973 -2.82627,-0.17985 -4.24712,-0.19417 -8.65642,-0.079 -17.39778,1.44263 -25.67585,4.68768 l -26.25115,10.282 c -17.43256,6.82469 -30.8033,20.34453 -36.6875,37.08786 -5.88422,16.746914 -3.67955,35.015614 6.05023,50.129194 L 610.15591,120.61564 c -33.16623,16.50591 -71.9966,25.42798 -111.80769,25.42798 -95.08555,0 -179.31395,-51.359603 -200.27933,-122.117593 C 294.82561,12.978497 284.38924,5.225624 272.21928,4.714774 113.83599,-1.940856 -10.23046,-122.87843 -10.23046,-270.61464 c 0,-111.12688 70.98887,-210.88884 180.85059,-254.15381 7.22012,-2.84212 12.84177,-8.36447 15.50589,-15.23594 2.6641,-6.87145 2.13132,-14.46602 -1.47105,-20.95252 -19.2974,-34.76019 -29.08125,-72.27618 -29.08125,-111.50462 0,-134.0653 117.05871,-243.13798 260.93997,-243.13798 40.1045,0 78.60672,8.27456 114.42936,24.59334 7.50197,3.42139 16.25105,3.55448 23.87659,0.36694 7.6178,-3.18745 13.32827,-9.36455 15.57541,-16.86199 31.34382,-104.57208 134.67271,-177.60738 251.27195,-177.60738 116.59924,0 219.9281,73.0353 251.272,177.60738 2.2509,7.49744 7.9575,13.67814 15.5754,16.86199 7.6216,3.19115 16.3746,3.05796 23.8766,-0.36694 35.8226,-16.31878 74.3248,-24.59334 114.4293,-24.59334 96.1821,0 184.287,49.06805 229.9282,128.06093 7.363,12.74637 24.4287,17.5168 38.1084,10.65253 13.6835,-6.86064 18.7994,-22.76214 11.4325,-35.50847 -55.4714,-95.99889 -162.5571,-155.63309 -279.4691,-155.63309 -37.9887,0 -74.7997,6.11242 -109.8231,18.20753 -47.1162,-111.87522 -164.34087,-187.72382 -295.34951,-187.72382 -131.00859,0 -248.23332,75.8486 -295.33015,187.72019 -35.02341,-12.09523 -71.8345,-18.20753 -109.82314,-18.20753 -174.91239,0 -317.21064,132.59029 -317.21064,295.56599 0,38.55571 7.77611,75.75869 23.15846,110.93262 -115.68421,56.31353 -188.95878,167.74619 -188.95878,290.91428 0,169.73208 137.57233,309.744237 316.67779,326.386817 35.21259,84.885833 134.17077,142.699603 248.16768,142.699603 49.97719,0 98.9196,-11.56275 140.76159,-32.88948 l 13.94217,21.65052 c 19.01943,29.54362 26.89208,64.53408 22.16231,98.53517 -4.09269,29.39615 -9.13133,64.01246 -15.52134,97.89482 -2.68727,14.26098 7.54059,27.84918 22.84185,30.35313 15.32446,2.50753 29.88821,-7.02617 32.57552,-21.28351 6.58305,-34.90772 11.73365,-70.25073 15.90358,-100.22969 6.35138,-45.65737 -4.19695,-92.62433 -29.71062,-132.24489 L 547.20181,-79.048666 c -1.8224,-2.82774 -1.30115,-5.50439 -0.82624,-6.84989 0.47103,-1.3455 1.75291,-3.78828 5.01161,-5.06544 l 26.25499,-10.281984 c 3.61392,-1.41748 7.8765,-0.42454 10.35144,2.413984 L 737.93668,72.990337 c 0.3977,0.45331 0.81856,0.87782 1.23168,1.31311 5.57147,5.90009 12.50203,10.14171 20.11984,12.46935 8.09271,2.47518 16.93446,2.79896 25.6797,0.73751 0.0966,-0.022 0.19306,-0.0362 0.29344,-0.0611 0,0 0,0 0.005,0 h 0.005 c 8.49812,-2.05783 15.88814,-6.16632 21.63721,-11.72464 0.22395,-0.21952 0.46719,-0.42451 0.68726,-0.64399 0.20077,-0.20518 0.3861,-0.4245 0.58302,-0.63315 5.51355,-5.79579 9.33598,-13.00541 10.86107,-21.08925 l 47.87249,-253.448757 c 0.79152,-4.18764 4.91896,-7.11248 9.36687,-6.83908 l 25.13144,1.58295 c 3.34751,0.21237 5.38227,1.98948 6.29347,3.03281 0.91121,1.0397 2.37454,3.24864 1.9228,6.35342 l -26.824,185.165864 c -0.33204,2.29167 -0.46332,4.57257 -0.40154,6.82826 0.417,15.789983 10.16223,30.299153 25.74149,37.429643 1.11197,0.51087 2.2394,0.97496 3.3784,1.39227 5.6873,2.10101 11.65645,3.08675 17.5677,3.01122 11.82246,-0.15119 23.42481,-4.54379 32.13531,-12.76436 l 91.20527,-86.040683 c 1.5753,-1.48581 3.6255,-2.28807 5.7182,-2.42118 0.093,-0.009 0.1815,-0.0285 0.2741,-0.0326 0.046,0 0.093,0.009 0.1389,0.009 1.5985,-0.0326 3.2047,0.32017 4.6371,1.08644 0.4904,0.26247 0.9614,0.57204 1.4054,0.9318 3.3398,2.70901 4.0425,7.20962 1.6757,10.69572 L 942.42875,131.42665 c -26.01175,38.24988 -38.02342,84.24543 -33.8149,129.51069 11.78386,126.81249 32.20485,269.79985 120.94295,391.07196 H 613.55358 c 31.75311,-43.8764 56.4251,-93.7934 74.87309,-151.25461 4.45177,-13.8688 -4.00388,-28.47872 -18.892,-32.62679 -14.89201,-4.14805 -30.56777,3.73073 -35.0157,17.60317 -22.50208,70.0888 -54.90383,127.47443 -99.06245,175.42353 -7.15448,7.7708 -8.79928,18.7148 -4.20851,28.0182 4.59077,9.3035 14.57151,15.2647 25.56003,15.2647 h 529.67536 c 10.9885,0 20.9731,-5.9612 25.56,-15.2647 4.5908,-9.3034 2.946,-20.2474 -4.2085,-28.0146 C 999.49823,543.49408 977.12753,390.54129 964.66023,256.41484 c -3.1468,-33.89318 5.8301,-68.3188 25.2859,-96.92348 l 0.7876,-1.16201 c 44.56787,26.02518 98.25167,40.14224 154.22497,40.14224 113.9969,0 212.9551,-57.81376 248.1677,-142.703193 179.1055,-16.64258 316.6778,-156.654727 316.6778,-326.383217 0.01,-123.17169 -73.2708,-234.60434 -188.9511,-290.91788 z"
   id="path1306" /></svg>
