<?xml version="1.0" encoding="UTF-8" standalone="no"?>
<svg
   xmlns:dc="http://purl.org/dc/elements/1.1/"
   xmlns:cc="http://creativecommons.org/ns#"
   xmlns:rdf="http://www.w3.org/1999/02/22-rdf-syntax-ns#"
   xmlns:svg="http://www.w3.org/2000/svg"
   xmlns="http://www.w3.org/2000/svg"
   xmlns:sodipodi="http://sodipodi.sourceforge.net/DTD/sodipodi-0.dtd"
   xmlns:inkscape="http://www.inkscape.org/namespaces/inkscape"
   height="635"
   width="635"
   inkscape:version="1.0 (4035a4fb49, 2020-05-01)"
   sodipodi:docname="tree_canopy.svg"
   xml:space="preserve"
   viewBox="5 11 635 635"
   y="0px"
   x="0px"
   id="Layer_1"
   version="1.1"><metadata
   id="metadata1343"><rdf:RDF><cc:Work
       rdf:about=""><dc:format>image/svg+xml</dc:format><dc:type
         rdf:resource="http://purl.org/dc/dcmitype/StillImage" /><dc:title /></cc:Work></rdf:RDF></metadata><defs
   id="defs1341">
	
	
</defs><sodipodi:namedview
   inkscape:current-layer="Layer_1"
   inkscape:window-maximized="1"
   inkscape:window-y="-8"
   inkscape:window-x="-8"
   inkscape:cy="-416.59243"
   inkscape:cx="429.40255"
   inkscape:zoom="0.30076923"
   showgrid="true"
   id="namedview1339"
   inkscape:window-height="1017"
   inkscape:window-width="1920"
   inkscape:pageshadow="2"
   inkscape:pageopacity="0"
   guidetolerance="10"
   gridtolerance="10"
   objecttolerance="10"
   borderopacity="1"
   bordercolor="#666666"
   pagecolor="#ffffff"
   inkscape:document-rotation="0"
   fit-margin-left="100"
   fit-margin-right="100"
   fit-margin-top="100"
   fit-margin-bottom="100"
   showborder="true"
   borderlayer="false"
   inkscape:showpageshadow="false"
   viewbox-x="10"
   viewbox-y="11"><inkscape:grid
     id="grid1988"
     type="xygrid"
     originx="-101.72102"
     originy="-85.559823" /></sodipodi:namedview>







<g
   id="g1308"
   transform="translate(-176.17402,-173.35982)">
</g>
<g
   id="g1310"
   transform="translate(-176.17402,-173.35982)">
</g>
<g
   id="g1312"
   transform="translate(-176.17402,-173.35982)">
</g>
<g
   id="g1314"
   transform="translate(-176.17402,-173.35982)">
</g>
<g
   id="g1316"
   transform="translate(-176.17402,-173.35982)">
</g>
<g
   id="g1318"
   transform="translate(-176.17402,-173.35982)">
</g>
<g
   id="g1320"
   transform="translate(-176.17402,-173.35982)">
</g>
<g
   id="g1322"
   transform="translate(-176.17402,-173.35982)">
</g>
<g
   id="g1324"
   transform="translate(-176.17402,-173.35982)">
</g>
<g
   id="g1326"
   transform="translate(-176.17402,-173.35982)">
</g>
<g
   id="g1328"
   transform="translate(-176.17402,-173.35982)">
</g>
<g
   id="g1330"
   transform="translate(-176.17402,-173.35982)">
</g>
<g
   id="g1332"
   transform="translate(-176.17402,-173.35982)">
</g>
<g
   id="g1334"
   transform="translate(-176.17402,-173.35982)">
</g>
<g
   id="g1336"
   transform="translate(-176.17402,-173.35982)">
</g>
<path
   id="path1290"
   d="m 854.92004,-148.53823 c 0,-125.12159 -81.66072,-232.47093 -198.02836,-278.30102 20.54843,-37.01589 32.22803,-79.00012 32.22803,-123.54943 0,-148.75796 -129.4217,-269.35381 -289.07529,-269.35381 -45.4868,0 -88.4987,9.8179 -126.78466,27.25921 -34.01955,-113.48341 -145.71913,-196.76461 -278.36867,-196.76461 -132.64953,0 -244.34914,83.2812 -278.36867,196.76812 -38.28213,-17.44121 -81.29785,-27.25913 -126.78463,-27.25913 -159.64976,0 -289.07534,120.59226 -289.07534,269.3538 0,44.54932 11.67962,86.53353 32.22802,123.54945 -116.36758,45.83005 -198.02839,153.17944 -198.02839,278.30101 0,162.155504 137.20174,294.28171 309.31486,301.5165 23.99631,80.98602 116.66102,141.35765 227.39923,141.35765 62.7649,0 119.69578,-19.42355 161.65746,-50.96388 41.9578,31.54033 98.89255,50.96388 161.65746,50.96388 62.7649,0 119.69578,-19.42355 161.65747,-50.96388 41.95781,31.54033 98.89254,50.96388 161.65745,50.96388 110.74207,0 203.40678,-60.37525 227.39921,-141.35765 172.11315,-7.23841 309.31482,-139.364567 309.31482,-301.52009 z"
   style="fill:#00a700;fill-opacity:1;stroke-width:3.72699" /><path
   style="fill:#097c09;stroke-width:3.72699"
   d="m -22.44494,-988.71549 c -3.55988,0.1978 -7.1043,0.4389 -10.62557,0.7591 -1.07722,0.097 -2.15056,0.2087 -3.2278,0.3166 -3.78382,0.3814 -7.54831,0.8203 -11.28964,1.3383 -0.69885,0.097 -1.40157,0.1907 -2.10041,0.2914 -4.45177,0.6476 -8.87265,1.3671 -13.25491,2.1982 -0.009,0 -0.0153,0 -0.0231,0 75.88469,14.3797 146.935366,63.6275 191.94724,125.70439 31.87667,43.95934 86.34035,69.29737 143.14385,65.69972 0.37836,-0.0246 0.75675,-0.0464 1.13512,-0.072 -34.01566,-113.49061 -145.71525,-196.77191 -278.3648,-196.77191 -4.64867,0 -9.26647,0.1255 -13.86497,0.331 -1.16216,0.051 -2.31661,0.1367 -3.47492,0.2016 z"
   id="path1292" /><path
   style="fill:#008200;fill-opacity:1;stroke-width:3.72699"
   d="m 656.88785,-426.83925 c 20.55226,-37.01589 32.22802,-79.00012 32.22802,-123.54943 0,-148.75796 -129.42174,-269.35381 -289.07533,-269.35381 -19.81095,0 -39.15472,1.8671 -57.84209,5.41078 131.91211,24.98189 231.19463,133.65521 231.19463,263.94303 0,44.54931 -11.67964,86.53354 -32.22804,123.54943 116.36759,45.83009 198.02838,153.17943 198.02838,278.30102 0,162.155523 -137.2017,294.28168 -309.31095,301.51291 -19.66809,66.37606 -85.47937,118.87972 -169.54945,135.6734 18.50591,3.70195 37.8883,5.68786 57.86916,5.68786 110.73816,0 203.40675,-60.37527 227.39922,-141.35765 172.1131,-7.23122 309.31091,-139.357426 309.31091,-301.51293 0.01,-125.12518 -81.64917,-232.47096 -198.02446,-278.30461 z"
   id="path1294" /><path
   id="path1298"
   d="m -212.09488,198.75797 c -26.06964,41.19993 -134.11284,87.27105 -174.17877,89.89011 4.4093,0.88142 8.87651,1.65131 13.37847,2.33487 0.36295,0.0539 0.722,0.11503 1.08495,0.16911 4.56759,0.67634 9.17766,1.25556 13.83407,1.71965 0.11977,0.0122 0.23941,0.0194 0.35908,0.0326 4.18921,0.41372 8.42476,0.70872 12.6835,0.94616 1.03859,0.0575 2.07336,0.11164 3.11583,0.15836 4.43633,0.19776 8.89581,0.33097 13.39778,0.33097 v 0 c 57.24362,0 109.59533,-16.19286 150.20179,-42.96276 l 7.11972,-4.82442 -36.25891,-55.43209 z"
   style="fill:#009000;stroke-width:3.72699" /><path
   id="path1300"
   d="M 139.43646,267.53727 263.28675,85.440177 c 9.79539,-14.4049 6.834,-33.31399 -6.97691,-44.50617 v 0 C 241.56456,28.98271 219.39068,29.763408 205.65699,42.718447 L 114.44788,128.7591 c -12.09661,11.41162 -32.822622,1.92114 -30.517584,-13.97317 L 110.75287,-70.376333 c 2.86488,-19.78331 -12.830198,-37.699477 -34.20486,-39.044987 l -25.12758,-1.58295 c -18.8843,-1.18718 -35.69137,11.080687 -38.96939,28.446387 L -35.42187,170.89082 c -2.66409,14.09549 -21.8727,18.74719 -31.56391,7.64135 L -216.92503,6.713453 C -227.2996,-5.176693 -244.84799,-9.267183 -260.00638,-3.327523 l -26.25113,10.282015 c -20.78394,8.141423 -29.00792,31.55112 -17.40939,49.564395 l 154.08211,239.306463 c 22.3129,34.65587 31.51374,75.31258 25.93456,115.39003 -19.96925,143.50184 -44.77253,278.8407 -146.28286,389.08614 H 259.7423 v 0 C 151.07746,682.28161 124.2742,535.51313 109.89186,380.75435 c -3.70273,-39.73931 6.62939,-79.52538 29.5446,-113.21708 z"
   style="fill:#bf6101;stroke-width:3.72699" /><path
   id="path1302"
   d="m 263.27898,85.440177 c 9.79545,-14.4049 6.83405,-33.31399 -6.97689,-44.50617 v 0 C 241.55685,28.98271 219.38293,29.763408 205.64927,42.718447 l -40.73387,38.42255 v 0 L 114.44017,128.7591 c -12.09662,11.41162 -32.818768,1.92114 -30.517592,-13.97317 L 110.74515,-70.376333 c 2.79537,-19.28325 -12.065712,-36.746077 -32.614122,-38.865097 L 2.71354,327.53836 c -1.26642,5.64108 -2.2587,11.33608 -2.94598,17.0707 v 0 0 c -1.4363,11.93691 -1.62935,24.04288 -0.50579,36.14168 14.38234,154.76239 41.18561,301.53087 149.85043,419.54716 v 0 h 110.61467 v 0 C 151.06202,682.278 124.25875,535.50953 109.87641,380.75074 c -3.69113,-39.7393 6.63712,-79.52537 29.55234,-113.21709 z"
   style="fill:#9a4d01;stroke-width:3.72699" /><path
   id="path1304"
   d="m -60.12084,-777.78706 c -81.10095,0 -150.91611,44.85155 -182.56499,109.36408 -32.69517,-21.52817 -72.5719,-34.21696 -115.64941,-34.21696 -110.83474,0 -200.68476,83.72019 -200.68476,186.99345 0,34.07666 9.8302,65.99114 26.91912,93.50572 -96.24004,13.7861 -169.93938,91.27522 -169.93938,184.80973 0,103.27324 89.85004,186.993437 200.68478,186.993437 110.83469,0 641.91935,-437.182687 641.91935,-540.455947 0,-103.27326 -89.85387,-186.99351 -200.68471,-186.99351 z"
   style="fill:#00b400;fill-opacity:1;stroke-width:3.72699" /><path
   id="path1306"
   d="m 694.09658,-439.45251 c 15.38234,-35.17751 23.15849,-72.37688 23.15849,-110.93259 0,-7.81763 -0.33208,-15.71801 -0.98845,-23.47088 -1.22009,-14.43363 -14.77617,-25.20129 -30.25503,-24.07526 -15.48657,1.13686 -27.05808,13.7573 -25.83801,28.19096 0.53668,6.39297 0.81466,12.90466 0.81466,19.35518 0,39.22846 -9.78382,76.74441 -29.08126,111.50462 -3.60621,6.4865 -4.13516,14.08109 -1.47105,20.95254 2.6641,6.87145 8.28577,12.39379 15.50589,15.23593 109.86173,43.26854 180.8506,143.03053 180.8506,254.15378 0,147.732677 -124.06645,268.67022 -282.44973,275.32584 -12.17383,0.51086 -22.61019,8.26732 -25.8496,19.21127 -20.96539,70.76159 -105.19762,122.12118 -200.27938,122.12118 -45.30533,0 -88.51795,-11.23536 -124.11277,-31.97923 L 287.05136,99.467267 c 6.51356,-9.57687 9.85721,-20.19342 10.20469,-30.77045 0.57533,-17.62833 -7.17764,-35.141522 -22.47506,-47.542516 C 248.90052,0.172987 209.74967,1.558047 185.64528,24.295017 l -69.74951,65.79684 22.74147,-156.96412 c 2.40155,-16.59583 -2.73746,-33.551387 -14.10049,-46.520837 -9.94216,-11.35048 -24.0465,-18.95583 -39.428837,-21.43818 -2.196922,-0.35257 -4.420877,-0.6044 -6.660275,-0.74471 l -25.127578,-1.58294 c -12.50203,-0.7915 -24.45963,1.74483 -34.82263,6.83545 -17.27425,8.4832 -30.13535,24.07526 -33.75313,43.221807 L -37.25585,29.371243 -59.25598,145.8406 -195.09477,-9.817623 c -4.50581,-5.16257 -9.81858,-9.49052 -15.66032,-12.91906 -0.0347,-0.0222 -0.0695,-0.0469 -0.10419,-0.0683 -0.62937,-0.36697 -1.2896,-0.68354 -1.93052,-1.03252 -8.35913,-4.52218 -17.67964,-7.31034 -27.26659,-8.10184 -0.30502,-0.0248 -0.61776,-0.0219 -0.9228,-0.0433 -1.41313,-0.0973 -2.82627,-0.17985 -4.24712,-0.19417 -8.65642,-0.079 -17.39778,1.44263 -25.67585,4.68768 l -26.25115,10.282 c -17.43256,6.82469 -30.8033,20.34453 -36.6875,37.087855 -5.88422,16.74691 -3.67955,35.015615 6.05023,50.129195 l 111.18993,172.685773 c -33.16623,16.50591 -71.9966,25.42798 -111.80769,25.42798 -95.08555,0 -179.31395,-51.3596 -200.27933,-122.11759 -3.24328,-10.94753 -13.67965,-18.7004 -25.84961,-19.21125 -158.38329,-6.65563 -282.44974,-127.593193 -282.44974,-275.32942 0,-111.12687 70.98887,-210.88883 180.85059,-254.15381 7.22012,-2.84212 12.84177,-8.36447 15.50589,-15.23594 2.6641,-6.87145 2.13132,-14.46602 -1.47105,-20.95252 -19.2974,-34.76019 -29.08125,-72.27618 -29.08125,-111.50462 0,-134.0653 117.05871,-243.13798 260.93997,-243.13798 40.1045,0 78.60672,8.27456 114.42936,24.59334 7.50197,3.42139 16.25105,3.55448 23.87659,0.36694 7.6178,-3.18745 13.32827,-9.36455 15.57541,-16.86199 31.34382,-104.57206 134.67271,-177.60742 251.27195,-177.60742 116.59924,0 219.92813,73.03536 251.272,177.60742 2.25095,7.49744 7.95754,13.67814 15.57537,16.86199 7.62168,3.19115 16.37461,3.05796 23.8766,-0.36694 35.82266,-16.31878 74.32485,-24.59334 114.42937,-24.59334 96.18209,0 184.28693,49.06805 229.92817,128.06093 7.36299,12.74637 24.42874,17.5168 38.10838,10.65253 13.6835,-6.86064 18.79937,-22.76214 11.43252,-35.50847 -55.47142,-95.99889 -162.55709,-155.63309 -279.46907,-155.63309 -37.98869,0 -74.79974,6.11242 -109.82314,18.20753 -47.11616,-111.87526 -164.34089,-187.72387 -295.34951,-187.72387 -131.00859,0 -248.23332,75.84861 -295.33015,187.72024 -35.02341,-12.09523 -71.8345,-18.20753 -109.82314,-18.20753 -174.91239,0 -317.21064,132.59029 -317.21064,295.56599 0,38.55571 7.77611,75.75869 23.15846,110.93262 -115.68421,56.31354 -188.95878,167.7462 -188.95878,290.91428 0,169.732097 137.57233,309.74424 316.67779,326.38682 35.21259,84.88583 134.17077,142.6996 248.16768,142.6996 49.97719,0 98.9196,-11.56275 140.76159,-32.88948 l 13.94217,21.65052 c 19.01943,29.54362 26.89208,64.53408 22.16231,98.53517 -4.09269,29.39615 -9.13133,64.01246 -15.52134,97.89482 -2.68727,14.26098 7.54059,27.84918 22.84185,30.35313 15.32446,2.50753 29.88821,-7.02617 32.57552,-21.28351 6.58305,-34.90772 11.73365,-70.25073 15.90358,-100.22969 6.35138,-45.65737 -4.19695,-92.62433 -29.71062,-132.24489 L -279.55475,43.031397 c -1.8224,-2.827745 -1.30115,-5.504398 -0.82624,-6.849898 0.47103,-1.345498 1.75291,-3.788279 5.01161,-5.065437 l 26.25499,-10.281978 c 3.61392,-1.417484 7.8765,-0.424537 10.35144,2.41398 L -88.81988,195.07039 c 0.3977,0.45331 0.81856,0.87782 1.23168,1.31311 5.57147,5.90009 12.50203,10.14171 20.11984,12.46935 8.09271,2.47518 16.93446,2.79896 25.6797,0.73751 0.0966,-0.022 0.19306,-0.0362 0.29344,-0.0611 0,0 0,0 0.005,0 h 0.005 c 8.49812,-2.05783 15.88814,-6.16632 21.63721,-11.72464 0.22395,-0.21952 0.46719,-0.42451 0.68726,-0.64399 0.20077,-0.20518 0.3861,-0.4245 0.58302,-0.63315 5.51355,-5.79579 9.33598,-13.00541 10.86107,-21.08925 L 40.15583,-78.010523 c 0.79152,-4.18764 4.91896,-7.11248 9.36687,-6.83908 l 25.131437,1.58295 c 3.34751,0.21237 5.382272,1.98948 6.293473,3.03281 0.911212,1.0397 2.374541,3.24864 1.922799,6.35342 L 56.04641,111.28544 c -0.33204,2.29167 -0.46332,4.57257 -0.40154,6.82826 0.417,15.78998 10.16223,30.29915 25.741491,37.42964 1.111972,0.51087 2.2394,0.97496 3.378401,1.39227 5.687296,2.10101 11.656443,3.08675 17.567698,3.01122 11.82246,-0.15119 23.42485,-4.54379 32.13533,-12.76436 l 91.20526,-86.040673 c 1.5753,-1.48581 3.62551,-2.28807 5.71817,-2.42118 0.0926,-0.009 0.18148,-0.0285 0.27416,-0.0326 0.0463,0 0.0926,0.009 0.13886,0.009 1.59847,-0.0326 3.20468,0.32017 4.63711,1.08644 0.49036,0.26247 0.96139,0.57204 1.4054,0.9318 3.33981,2.70901 4.04253,7.20962 1.67572,10.69572 L 115.67219,253.5067 C 89.660436,291.75658 77.648767,337.75213 81.857288,383.01739 93.641146,509.82988 114.06214,652.81724 202.8002,774.0894 h -416.00318 c 31.75311,-43.87647 56.4251,-93.79345 74.87309,-151.25466 4.45177,-13.8688 -4.00388,-28.47872 -18.892,-32.62679 -14.89201,-4.14805 -30.56777,3.73073 -35.0157,17.60317 -22.50208,70.0888 -54.90383,127.47444 -99.06245,175.4235 -7.15448,7.77086 -8.79928,18.71482 -4.20851,28.01824 4.59077,9.30346 14.57151,15.26471 25.56003,15.26471 h 529.67539 c 10.98846,0 20.97308,-5.96125 25.56,-15.26471 4.59078,-9.30342 2.94599,-20.24738 -4.20853,-28.01462 C 172.74169,665.57413 150.3709,512.62134 137.90364,378.49489 c -3.14676,-33.89318 5.83015,-68.3188 25.28588,-96.92348 l 0.78766,-1.16201 c 44.56786,26.02518 98.25165,40.14224 154.225,40.14224 113.99689,0 212.95507,-57.81376 248.16767,-142.70319 179.10549,-16.64258 316.67783,-156.65472 316.67783,-326.38322 0.01,-123.17168 -73.27082,-234.60433 -188.9511,-290.91788 z"
   style="fill:#121419;stroke-width:3.72699" /><g
   transform="matrix(2.6144785,0,0,2.4361113,-1514.023,-1505.0975)"
   id="g2023"
   style="fill:none;fill-opacity:1;stroke:#060906;stroke-width:20.675;stroke-miterlimit:4;stroke-dasharray:none;stroke-opacity:1;paint-order:stroke fill markers"><path
     style="color:#000000;font-style:normal;font-variant:normal;font-weight:normal;font-stretch:normal;font-size:medium;line-height:normal;font-family:sans-serif;font-variant-ligatures:normal;font-variant-position:normal;font-variant-caps:normal;font-variant-numeric:normal;font-variant-alternates:normal;font-variant-east-asian:normal;font-feature-settings:normal;font-variation-settings:normal;text-indent:0;text-align:start;text-decoration:none;text-decoration-line:none;text-decoration-style:solid;text-decoration-color:#000000;letter-spacing:normal;word-spacing:normal;text-transform:none;writing-mode:lr-tb;direction:ltr;text-orientation:mixed;dominant-baseline:auto;baseline-shift:baseline;text-anchor:start;white-space:normal;shape-padding:0;shape-margin:0;inline-size:0;clip-rule:nonzero;display:inline;overflow:visible;visibility:visible;opacity:1;isolation:auto;mix-blend-mode:normal;color-interpolation:sRGB;color-interpolation-filters:linearRGB;solid-color:#000000;solid-opacity:1;vector-effect:none;fill:#060906;fill-opacity:1;fill-rule:nonzero;stroke:none;stroke-width:20.675;stroke-linecap:butt;stroke-linejoin:miter;stroke-miterlimit:4;stroke-dasharray:none;stroke-dashoffset:0;stroke-opacity:1;paint-order:stroke fill markers;color-rendering:auto;image-rendering:auto;shape-rendering:auto;text-rendering:auto;enable-background:accumulate;stop-color:#000000;stop-opacity:1"
     d="M 422.08398,23.251953 C 343.30345,22.572649 268.28584,64.635355 228.70117,136.00391 c -48.71958,87.83821 -31.36227,197.70643 42.0625,266.24804 l 14.10742,-15.11328 C 218.30556,325.00012 202.61298,225.6657 246.78125,146.0332 290.94952,66.40071 383.52782,27.117128 471.48633,50.685547 l 5.34961,-19.970703 c -18.19166,-4.874442 -36.57183,-7.306128 -54.75196,-7.462891 z"
     id="path5311"
     transform="rotate(13)" /></g><path
   transform="matrix(0.97763546,0.21030669,-0.24049961,0.97064923,0,0)"
   style="fill:none;fill-opacity:1;stroke:#060906;stroke-width:52.1905;stroke-miterlimit:4;stroke-dasharray:none;stroke-opacity:1;paint-order:stroke fill markers"
   id="path1375-3-8"
   sodipodi:type="arc"
   sodipodi:cx="-733.77618"
   sodipodi:cy="-558.89923"
   sodipodi:rx="403.41446"
   sodipodi:ry="378.59787"
   sodipodi:start="2.3218115"
   sodipodi:end="4.9741884"
   sodipodi:open="true"
   sodipodi:arc-type="arc"
   d="m -1009.0586,-282.14551 a 403.41446,378.59787 0 0 1 -77.5006,-460.3883 403.41446,378.59787 0 0 1 457.19437,-182.06288" /><path
   transform="matrix(0.97763546,0.21030669,-0.24049961,0.97064923,0,0)"
   sodipodi:arc-type="arc"
   sodipodi:open="true"
   sodipodi:end="4.9741884"
   sodipodi:start="2.3218115"
   sodipodi:ry="251.01779"
   sodipodi:rx="267.47171"
   sodipodi:cy="-558.5639"
   sodipodi:cx="-723.47241"
   sodipodi:type="arc"
   id="path1375-3-4-6"
   style="fill:none;fill-opacity:1;stroke:#060906;stroke-width:52.1905;stroke-miterlimit:4;stroke-dasharray:none;stroke-opacity:1;paint-order:stroke fill markers"
   d="m -905.99008,-375.07077 a 267.47171,251.01779 0 0 1 -51.3844,-305.24645 267.47171,251.01779 0 0 1 303.12885,-120.71125" /></svg>
